<svg xmlns="http://www.w3.org/2000/svg" xmlns:osb="http://www.openswatchbook.org/uri/2009/osb" xmlns:svg="http://www.w3.org/2000/svg" xmlns:xlink="http://www.w3.org/1999/xlink" id="svg1026" width="242" height="138" version="1.1"><metadata id="metadata1030"/><defs id="Qogir"><linearGradient id="dark_icon_bg" osb:paint="solid"><stop id="stop2" offset="0" stop-color="#32343d"/></linearGradient><linearGradient id="dark_button_bg" osb:paint="solid"><stop id="stop5" offset="0" stop-color="#fff"/></linearGradient><linearGradient id="fg_color" osb:paint="solid"><stop id="stop8" offset="0" stop-color="#5c616c"/></linearGradient><linearGradient id="selected_fg_color" osb:paint="solid"><stop id="stop11" offset="0" stop-color="#ffffffgit"/></linearGradient><linearGradient id="selected_bg_color" osb:paint="solid"><stop id="stop14" offset="0" stop-color="#2eb398"/></linearGradient><linearGradient id="au" x1="484.2" x2="484.2" y1="188.95" y2="204.89" gradientUnits="userSpaceOnUse" xlink:href="#selected_bg_color"/><linearGradient id="k" x1="10.5" x2="10.5" y1="1033.4" y2="1035.4" gradientTransform="rotate(45,1080.9,414.46)" gradientUnits="userSpaceOnUse" xlink:href="#selected_bg_color"/><linearGradient id="j" x1="-737.8" x2="-737.8" y1="-725.95" y2="-717.95" gradientTransform="matrix(0.50001,0,0,1.125,534.05,679.7)" gradientUnits="userSpaceOnUse" xlink:href="#selected_bg_color"/><linearGradient id="i" x1="-737.8" x2="-737.8" y1="-725.95" y2="-717.95" gradientTransform="matrix(0.50001,0,0,1.125,534.05,749.7)" gradientUnits="userSpaceOnUse" xlink:href="#selected_bg_color"/><clipPath id="cr"><rect style="opacity:.1;fill:#fff;stroke:#fff;stroke-width:.61144;stroke-linecap:round;paint-order:stroke fill markers" id="rect21" width="727.39" height="345.39" x="572.31" y="387.67" rx=".909" ry=".925"/></clipPath><clipPath id="cq"><rect id="rect24" width="727.23" height="345.23" x="1092.8" y="-932.87" style="fill:#282a33"/></clipPath><linearGradient id="cp" x1="143" x2="143" y1="-50.638" y2="-80.638" gradientUnits="userSpaceOnUse" xlink:href="#selected_fg_color"/><linearGradient id="w" x1="144" x2="144" y1="-103.64" y2="-125.64" gradientUnits="userSpaceOnUse" xlink:href="#selected_fg_color"/><linearGradient id="v" x1="147" x2="147" y1="-110.64" y2="-119.64" gradientUnits="userSpaceOnUse" xlink:href="#selected_fg_color"/><linearGradient id="u" x1="142" x2="142" y1="-110.64" y2="-121.64" gradientUnits="userSpaceOnUse" xlink:href="#selected_fg_color"/><linearGradient id="co" x1="143" x2="143" y1="-.638" y2="-30.638" gradientUnits="userSpaceOnUse" xlink:href="#selected_fg_color"/><linearGradient id="at" x1="-62.5" x2="-62.5" y1="-157.64" y2="-172.64" gradientTransform="translate(173,405.64)" gradientUnits="userSpaceOnUse" xlink:href="#selected_fg_color"/><linearGradient id="as" x1="165.14" x2="165.14" y1="-58" y2="-67" gradientTransform="translate(-405.64,173)" gradientUnits="userSpaceOnUse" xlink:href="#selected_fg_color"/><linearGradient id="ar" x1="-82.5" x2="-82.5" y1="-157.64" y2="-172.64" gradientTransform="translate(173,405.64)" gradientUnits="userSpaceOnUse" xlink:href="#selected_fg_color"/><linearGradient id="aq" x1="-82.5" x2="-82.5" y1="-162.64" y2="-167.64" gradientTransform="translate(173,405.64)" gradientUnits="userSpaceOnUse" xlink:href="#selected_fg_color"/><linearGradient id="ap" x1="-102.5" x2="-102.5" y1="-157.64" y2="-172.64" gradientTransform="translate(173,405.64)" gradientUnits="userSpaceOnUse" xlink:href="#selected_fg_color"/><linearGradient id="ao" x1="-132.5" x2="-132.5" y1="-157.64" y2="-172.64" gradientTransform="translate(183,405.64)" gradientUnits="userSpaceOnUse" xlink:href="#selected_fg_color"/><linearGradient id="an" x1="165.14" x2="165.14" y1="-128" y2="-137" gradientTransform="translate(-405.64,183)" gradientUnits="userSpaceOnUse" xlink:href="#selected_fg_color"/><linearGradient id="am" x1="-152.5" x2="-152.5" y1="-157.64" y2="-172.64" gradientTransform="translate(183,405.64)" gradientUnits="userSpaceOnUse" xlink:href="#selected_fg_color"/><linearGradient id="al" x1="-111.5" x2="-111.5" y1="97.682" y2="91.318" gradientTransform="translate(141.9996,146.002)" gradientUnits="userSpaceOnUse" xlink:href="#selected_fg_color"/><linearGradient id="ak" x1="-172.5" x2="-172.5" y1="-157.64" y2="-172.64" gradientTransform="translate(183,405.64)" gradientUnits="userSpaceOnUse" xlink:href="#selected_fg_color"/><linearGradient id="aj" x1="-117" x2="-117" y1="33" y2="13" gradientUnits="userSpaceOnUse" xlink:href="#selected_fg_color"/><linearGradient id="ai" x1="-102" x2="-102" y1="30" y2="16" gradientUnits="userSpaceOnUse" xlink:href="#selected_fg_color"/><linearGradient id="ah" x1="-110" x2="-110" y1="-255.64" y2="-269.64" gradientUnits="userSpaceOnUse" xlink:href="#selected_fg_color"/><linearGradient id="ag" x1="-125" x2="-125" y1="-282.64" y2="-302.64" gradientUnits="userSpaceOnUse" xlink:href="#selected_fg_color"/><linearGradient id="af" x1="-140" x2="-140" y1="-285.64" y2="-299.64" gradientUnits="userSpaceOnUse" xlink:href="#selected_fg_color"/><linearGradient id="ci" x1="-61" x2="-61" y1="-667.64" y2="-666.64" gradientUnits="userSpaceOnUse" xlink:href="#selected_fg_color"/><linearGradient id="cg" x1="-21" x2="-21" y1="-662.64" y2="-672.64" gradientUnits="userSpaceOnUse" xlink:href="#selected_fg_color"/><linearGradient id="ce" x1="19" x2="19" y1="-662.29" y2="-672.99" gradientUnits="userSpaceOnUse" xlink:href="#selected_fg_color"/><linearGradient id="cc" x1="59" x2="59" y1="-662.64" y2="-672.64" gradientUnits="userSpaceOnUse" xlink:href="#selected_fg_color"/><linearGradient id="ad" x1="19" x2="19" y1="-582.29" y2="-592.99" gradientUnits="userSpaceOnUse" xlink:href="#selected_fg_color"/><linearGradient id="ac" x1="19" x2="19" y1="-542.29" y2="-552.99" gradientUnits="userSpaceOnUse" xlink:href="#selected_fg_color"/><linearGradient id="a" x1="20.5" x2="20.5" y1="-678.28" y2="-687.99" gradientUnits="userSpaceOnUse" xlink:href="#selected_fg_color"/><linearGradient id="bw" x1="-61" x2="-61" y1="-627.64" y2="-626.64" gradientUnits="userSpaceOnUse" xlink:href="#selected_fg_color"/><linearGradient id="bu" x1="-21" x2="-21" y1="-622.64" y2="-632.64" gradientUnits="userSpaceOnUse" xlink:href="#selected_fg_color"/><linearGradient id="bt" x1="19" x2="19" y1="-622.29" y2="-632.99" gradientUnits="userSpaceOnUse" xlink:href="#selected_fg_color"/><linearGradient id="bs" x1="59" x2="59" y1="-622.64" y2="-632.64" gradientUnits="userSpaceOnUse" xlink:href="#selected_fg_color"/><linearGradient id="bq" x1="59" x2="59" y1="-582.64" y2="-592.64" gradientUnits="userSpaceOnUse" xlink:href="#selected_fg_color"/><linearGradient id="bp" x1="-61" x2="-61" y1="-587.64" y2="-586.64" gradientUnits="userSpaceOnUse" xlink:href="#selected_fg_color"/><linearGradient id="bo" x1="-21" x2="-21" y1="-582.64" y2="-592.64" gradientUnits="userSpaceOnUse" xlink:href="#selected_fg_color"/><linearGradient id="bm" x1="-61" x2="-61" y1="-547.64" y2="-546.64" gradientUnits="userSpaceOnUse" xlink:href="#selected_fg_color"/><linearGradient id="bl" x1="-21" x2="-21" y1="-542.64" y2="-552.64" gradientUnits="userSpaceOnUse" xlink:href="#selected_fg_color"/><linearGradient id="bk" x1="59" x2="59" y1="-542.64" y2="-552.64" gradientUnits="userSpaceOnUse" xlink:href="#selected_fg_color"/><linearGradient id="q" x1="-58.5" x2="-58.5" y1="-682.64" y2="-681.64" gradientUnits="userSpaceOnUse" xlink:href="#selected_fg_color"/><linearGradient id="p" x1="-21.5" x2="-21.5" y1="-678.64" y2="-687.64" gradientUnits="userSpaceOnUse" xlink:href="#selected_fg_color"/><linearGradient id="o" x1="59.5" x2="59.5" y1="-678.64" y2="-687.64" gradientUnits="userSpaceOnUse" xlink:href="#selected_fg_color"/><linearGradient id="n" x1="-82.5" x2="-82.5" y1="-162.64" y2="-167.64" gradientUnits="userSpaceOnUse" xlink:href="#selected_bg_color"/><linearGradient id="az" x1="140" x2="140" y1="132" y2="100" gradientUnits="userSpaceOnUse" xlink:href="#selected_bg_color"/><linearGradient id="ay" x1="484.2" x2="484.2" y1="204.89" y2="188.95" gradientUnits="userSpaceOnUse" xlink:href="#selected_bg_color"/><linearGradient id="ax" x1="20" x2="20" y1="132" y2="100" gradientUnits="userSpaceOnUse" xlink:href="#selected_bg_color"/><linearGradient id="m" x1="-102" x2="-102" y1="30" y2="16" gradientUnits="userSpaceOnUse" xlink:href="#selected_bg_color"/><linearGradient id="l" x1="-110" x2="-110" y1="-255.64" y2="-269.64" gradientUnits="userSpaceOnUse" xlink:href="#selected_bg_color"/><linearGradient id="aw" x1="182" x2="182" y1="-112.64" y2="-116.64" gradientTransform="translate(40,370.64)" gradientUnits="userSpaceOnUse" xlink:href="#selected_bg_color"/><linearGradient id="av" x1="52.5" x2="52.5" y1="-9.638" y2="-147.64" gradientTransform="translate(8,285.64)" gradientUnits="userSpaceOnUse" xlink:href="#selected_bg_color"/><linearGradient id="cn" x1="-61" x2="-61" y1="-667.64" y2="-666.64" gradientUnits="userSpaceOnUse" xlink:href="#fg_color"/><linearGradient id="cm" x1="-21" x2="-21" y1="-662.64" y2="-672.64" gradientUnits="userSpaceOnUse" xlink:href="#fg_color"/><linearGradient id="cl" x1="19" x2="19" y1="-662.29" y2="-672.99" gradientUnits="userSpaceOnUse" xlink:href="#fg_color"/><linearGradient id="ck" x1="59" x2="59" y1="-662.64" y2="-672.64" gradientUnits="userSpaceOnUse" xlink:href="#fg_color"/><linearGradient id="cj" x1="59" x2="59" y1="-622.64" y2="-632.64" gradientUnits="userSpaceOnUse" xlink:href="#fg_color"/><linearGradient id="ch" x1="19" x2="19" y1="-622.29" y2="-632.99" gradientUnits="userSpaceOnUse" xlink:href="#fg_color"/><linearGradient id="cf" x1="-61" x2="-61" y1="-627.64" y2="-626.64" gradientUnits="userSpaceOnUse" xlink:href="#fg_color"/><linearGradient id="cd" x1="-21" x2="-21" y1="-622.64" y2="-632.64" gradientUnits="userSpaceOnUse" xlink:href="#fg_color"/><linearGradient id="cb" x1="-61" x2="-61" y1="-587.64" y2="-586.64" gradientUnits="userSpaceOnUse" xlink:href="#fg_color"/><linearGradient id="ca" x1="-21" x2="-21" y1="-582.64" y2="-592.64" gradientUnits="userSpaceOnUse" xlink:href="#fg_color"/><linearGradient id="bz" x1="59" x2="59" y1="-582.64" y2="-592.64" gradientUnits="userSpaceOnUse" xlink:href="#fg_color"/><linearGradient id="by" x1="59" x2="59" y1="-542.64" y2="-552.64" gradientUnits="userSpaceOnUse" xlink:href="#fg_color"/><linearGradient id="bx" x1="-21" x2="-21" y1="-542.64" y2="-552.64" gradientUnits="userSpaceOnUse" xlink:href="#fg_color"/><linearGradient id="bv" x1="-61" x2="-61" y1="-547.64" y2="-546.64" gradientUnits="userSpaceOnUse" xlink:href="#fg_color"/><linearGradient id="t" x1="-58.5" x2="-58.5" y1="-682.64" y2="-681.64" gradientUnits="userSpaceOnUse" xlink:href="#fg_color"/><linearGradient id="s" x1="-21.5" x2="-21.5" y1="-678.64" y2="-687.64" gradientUnits="userSpaceOnUse" xlink:href="#fg_color"/><linearGradient id="br" x1="25.5" x2="25.5" y1="-733.28" y2="-742.99" gradientUnits="userSpaceOnUse" xlink:href="#fg_color"/><linearGradient id="r" x1="59.5" x2="59.5" y1="-678.64" y2="-687.64" gradientUnits="userSpaceOnUse" xlink:href="#fg_color"/><linearGradient id="bn" x1="25.5" x2="25.5" y1="-697.28" y2="-706.99" gradientUnits="userSpaceOnUse" xlink:href="#fg_color"/><linearGradient id="bj" x1="59" x2="59" y1="-567.64" y2="-605.64" gradientUnits="userSpaceOnUse" xlink:href="#dark_button_bg"/><linearGradient id="bi" x1="-21" x2="-21" y1="-567.64" y2="-605.64" gradientUnits="userSpaceOnUse" xlink:href="#dark_button_bg"/><linearGradient id="bh" x1="-61" x2="-61" y1="-567.64" y2="-605.64" gradientUnits="userSpaceOnUse" xlink:href="#dark_button_bg"/><linearGradient id="bg" x1="-61" x2="-61" y1="-527.64" y2="-565.64" gradientUnits="userSpaceOnUse" xlink:href="#dark_button_bg"/><linearGradient id="bf" x1="-21" x2="-21" y1="-527.64" y2="-565.64" gradientUnits="userSpaceOnUse" xlink:href="#dark_button_bg"/><linearGradient id="be" x1="59" x2="59" y1="-527.64" y2="-565.64" gradientUnits="userSpaceOnUse" xlink:href="#dark_button_bg"/><linearGradient id="ab" x1="-58.5" x2="-58.5" y1="-670.64" y2="-693.64" gradientUnits="userSpaceOnUse" xlink:href="#dark_button_bg"/><linearGradient id="aa" x1="-21.5" x2="-21.5" y1="-671.64" y2="-694.64" gradientUnits="userSpaceOnUse" xlink:href="#dark_button_bg"/><linearGradient id="z" x1="59.5" x2="59.5" y1="-671.64" y2="-694.64" gradientUnits="userSpaceOnUse" xlink:href="#dark_button_bg"/><linearGradient id="bd" x1="143" x2="143" y1="54.362" y2="12.362" gradientUnits="userSpaceOnUse" xlink:href="#dark_icon_bg"/><linearGradient id="bc" x1="143" x2="143" y1="5.362" y2="-36.638" gradientUnits="userSpaceOnUse" xlink:href="#dark_icon_bg"/><linearGradient id="bb" x1="143" x2="143" y1="-44.638" y2="-86.638" gradientUnits="userSpaceOnUse" xlink:href="#dark_icon_bg"/><linearGradient id="ba" x1="144" x2="144" y1="-92.638" y2="-134.64" gradientUnits="userSpaceOnUse" xlink:href="#dark_icon_bg"/><linearGradient id="b" x1="65.088" x2="67.733" y1="145.11" y2="145.11" gradientUnits="userSpaceOnUse" xlink:href="#selected_fg_color"/><linearGradient id="e" x1="19" x2="19" y1="-582.29" y2="-592.99" gradientTransform="matrix(0.26458,0,0,0.26458,43.656,300.61)" gradientUnits="userSpaceOnUse" xlink:href="#selected_fg_color"/><linearGradient id="c" x1="30.427" x2="33.073" y1="145.13" y2="145.13" gradientUnits="userSpaceOnUse" xlink:href="#selected_fg_color"/><linearGradient id="d" x1="14.287" x2="16.933" y1="145.26" y2="145.26" gradientUnits="userSpaceOnUse" xlink:href="#selected_fg_color"/><linearGradient id="y" x1="47.267" x2="50.1" y1="145.13" y2="145.13" gradientUnits="userSpaceOnUse" xlink:href="#selected_fg_color"/><linearGradient id="f" x1="59" x2="59" y1="-582.64" y2="-592.64" gradientTransform="matrix(0.26458,0,0,0.26458,50.8,300.59)" gradientUnits="userSpaceOnUse" xlink:href="#fg_color"/><linearGradient id="g" x1="-21" x2="-21" y1="-582.64" y2="-592.64" gradientTransform="matrix(0.26458,0,0,0.26458,37.306,300.61)" gradientUnits="userSpaceOnUse" xlink:href="#fg_color"/><linearGradient id="h" x1="-61" x2="-61" y1="-587.64" y2="-586.64" gradientTransform="matrix(0.26458,0,0,0.26458,31.75,300.61)" gradientUnits="userSpaceOnUse" xlink:href="#fg_color"/><linearGradient id="x" x1="47.267" x2="50.1" y1="145.13" y2="145.13" gradientUnits="userSpaceOnUse" xlink:href="#fg_color"/><linearGradient id="c-8" x1="59" x2="59" y1="-542.64" y2="-552.64" gradientTransform="matrix(0.26458,0,0,0.26458,57.15,262.24)" gradientUnits="userSpaceOnUse" xlink:href="#selected_fg_color"/><linearGradient id="a-5" x1="19" x2="19" y1="-542.29" y2="-552.99" gradientTransform="matrix(0.26458,0,0,0.26458,57.15,262.24)" gradientUnits="userSpaceOnUse" xlink:href="#selected_fg_color"/><linearGradient id="d-0" x1="-21" x2="-21" y1="-542.64" y2="-552.64" gradientTransform="matrix(0.26458,0,0,0.26458,57.15,262.24)" gradientUnits="userSpaceOnUse" xlink:href="#selected_fg_color"/><linearGradient id="e-6" x1="-61" x2="-61" y1="-547.64" y2="-546.64" gradientTransform="matrix(0.26458,0,0,0.26458,57.15,262.24)" gradientUnits="userSpaceOnUse" xlink:href="#selected_fg_color"/><linearGradient id="f-4" x1="59" x2="59" y1="-582.64" y2="-592.64" gradientTransform="matrix(0.26458,0,0,0.26458,57.15,262.24)" gradientUnits="userSpaceOnUse" xlink:href="#selected_fg_color"/><linearGradient id="b-6" x1="19" x2="19" y1="-582.29" y2="-592.99" gradientTransform="matrix(0.26458,0,0,0.26458,57.15,262.24)" gradientUnits="userSpaceOnUse" xlink:href="#selected_fg_color"/><linearGradient id="g-2" x1="-21" x2="-21" y1="-582.64" y2="-592.64" gradientTransform="matrix(0.26458,0,0,0.26458,57.15,262.24)" gradientUnits="userSpaceOnUse" xlink:href="#selected_fg_color"/><linearGradient id="h-5" x1="-61" x2="-61" y1="-587.64" y2="-586.64" gradientTransform="matrix(0.26458,0,0,0.26458,57.15,262.24)" gradientUnits="userSpaceOnUse" xlink:href="#selected_fg_color"/><linearGradient id="i-8" x1="59" x2="59" y1="-622.64" y2="-632.64" gradientTransform="matrix(0.26458,0,0,0.26458,57.15,262.24)" gradientUnits="userSpaceOnUse" xlink:href="#selected_fg_color"/><linearGradient id="j-6" x1="19" x2="19" y1="-622.29" y2="-632.99" gradientTransform="matrix(0.26458,0,0,0.26458,57.15,262.24)" gradientUnits="userSpaceOnUse" xlink:href="#selected_fg_color"/><linearGradient id="k-2" x1="-21" x2="-21" y1="-622.64" y2="-632.64" gradientTransform="matrix(0.26458,0,0,0.26458,57.15,262.24)" gradientUnits="userSpaceOnUse" xlink:href="#selected_fg_color"/><linearGradient id="l-8" x1="-61" x2="-61" y1="-627.64" y2="-626.64" gradientTransform="matrix(0.26458,0,0,0.26458,57.15,262.24)" gradientUnits="userSpaceOnUse" xlink:href="#selected_fg_color"/><linearGradient id="m-4" x1="59" x2="59" y1="-662.64" y2="-672.64" gradientTransform="matrix(0.26458,0,0,0.26458,57.15,262.24)" gradientUnits="userSpaceOnUse" xlink:href="#selected_fg_color"/><linearGradient id="n-7" x1="19" x2="19" y1="-662.29" y2="-672.99" gradientTransform="matrix(0.26458,0,0,0.26458,57.15,262.24)" gradientUnits="userSpaceOnUse" xlink:href="#selected_fg_color"/><linearGradient id="o-2" x1="-21" x2="-21" y1="-662.64" y2="-672.64" gradientTransform="matrix(0.26458,0,0,0.26458,57.15,262.24)" gradientUnits="userSpaceOnUse" xlink:href="#selected_fg_color"/><linearGradient id="p-4" x1="-61" x2="-61" y1="-667.64" y2="-666.64" gradientTransform="matrix(0.26458,0,0,0.26458,57.15,262.24)" gradientUnits="userSpaceOnUse" xlink:href="#selected_fg_color"/><linearGradient id="linearGradient2982" x1="-737.8" x2="-737.8" y1="-725.95" y2="-717.95" gradientTransform="matrix(0.13229431,0,0,0.29765625,-30.72069,310.80604)" gradientUnits="userSpaceOnUse" xlink:href="#selected_bg_color"/><linearGradient id="linearGradient2980" x1="-82.5" x2="-82.5" y1="-162.64" y2="-167.64" gradientTransform="matrix(0.26458333,0,0,0.26458333,112.44792,172.02141)" gradientUnits="userSpaceOnUse" xlink:href="#selected_bg_color"/><linearGradient id="linearGradient2978" x1="-737.8" x2="-737.8" y1="-725.95" y2="-717.95" gradientTransform="matrix(0.13229431,0,0,0.29765625,-30.72069,294.93104)" gradientUnits="userSpaceOnUse" xlink:href="#selected_bg_color"/><linearGradient id="linearGradient2976" x1="10.5" x2="10.5" y1="1033.4" y2="1035.4" gradientTransform="matrix(0.18708867,0.18708867,-0.18708867,0.18708867,265.55048,-66.780165)" gradientUnits="userSpaceOnUse" xlink:href="#selected_bg_color"/><linearGradient id="linearGradient2974" x1="-737.8" x2="-737.8" y1="-725.95" y2="-717.95" gradientTransform="matrix(0.13229431,0,0,0.29765625,-30.72069,278.79146)" gradientUnits="userSpaceOnUse" xlink:href="#selected_bg_color"/><linearGradient id="linearGradient2972" x1="-82.5" x2="-82.5" y1="-162.64" y2="-167.64" gradientTransform="matrix(0.26458333,0,0,0.26458333,80.43333,172.02141)" gradientUnits="userSpaceOnUse" xlink:href="#selected_bg_color"/><linearGradient id="linearGradient2970" x1="-737.8" x2="-737.8" y1="-725.95" y2="-717.95" gradientTransform="matrix(0.13229431,0,0,0.29765625,-30.72069,262.91646)" gradientUnits="userSpaceOnUse" xlink:href="#selected_bg_color"/><linearGradient id="linearGradient2968" x1="10.5" x2="10.5" y1="1033.4" y2="1035.4" gradientTransform="matrix(0.18708867,0.18708867,-0.18708867,0.18708867,233.53589,-66.780165)" gradientUnits="userSpaceOnUse" xlink:href="#selected_bg_color"/><linearGradient id="linearGradient3884" x1="10.5" x2="10.5" y1="1033.4" y2="1035.4" gradientTransform="matrix(0.18708867,0.18708867,-0.18708867,0.18708867,233.53589,-66.780165)" gradientUnits="userSpaceOnUse" xlink:href="#selected_bg_color"/><linearGradient id="linearGradient3886" x1="-737.8" x2="-737.8" y1="-725.95" y2="-717.95" gradientTransform="matrix(0.13229431,0,0,0.29765625,-30.72069,262.91646)" gradientUnits="userSpaceOnUse" xlink:href="#selected_bg_color"/><linearGradient id="linearGradient3888" x1="-82.5" x2="-82.5" y1="-162.64" y2="-167.64" gradientTransform="matrix(0.26458333,0,0,0.26458333,80.43333,172.02141)" gradientUnits="userSpaceOnUse" xlink:href="#selected_bg_color"/><linearGradient id="linearGradient3890" x1="-737.8" x2="-737.8" y1="-725.95" y2="-717.95" gradientTransform="matrix(0.13229431,0,0,0.29765625,-30.72069,278.79146)" gradientUnits="userSpaceOnUse" xlink:href="#selected_bg_color"/><linearGradient id="linearGradient3892" x1="10.5" x2="10.5" y1="1033.4" y2="1035.4" gradientTransform="matrix(0.18708867,0.18708867,-0.18708867,0.18708867,265.55048,-66.780165)" gradientUnits="userSpaceOnUse" xlink:href="#selected_bg_color"/><linearGradient id="linearGradient3894" x1="-737.8" x2="-737.8" y1="-725.95" y2="-717.95" gradientTransform="matrix(0.13229431,0,0,0.29765625,-30.72069,294.93104)" gradientUnits="userSpaceOnUse" xlink:href="#selected_bg_color"/><linearGradient id="linearGradient3896" x1="-82.5" x2="-82.5" y1="-162.64" y2="-167.64" gradientTransform="matrix(0.26458333,0,0,0.26458333,112.44792,172.02141)" gradientUnits="userSpaceOnUse" xlink:href="#selected_bg_color"/><linearGradient id="linearGradient3898" x1="-737.8" x2="-737.8" y1="-725.95" y2="-717.95" gradientTransform="matrix(0.13229431,0,0,0.29765625,-30.72069,310.80604)" gradientUnits="userSpaceOnUse" xlink:href="#selected_bg_color"/><linearGradient id="linearGradient1618" x1="-110" x2="-110" y1="-255.64" y2="-269.64" gradientUnits="userSpaceOnUse" xlink:href="#selected_bg_color"/><linearGradient id="linearGradient1620" x1="-102" x2="-102" y1="30" y2="16" gradientUnits="userSpaceOnUse" xlink:href="#selected_bg_color"/><linearGradient id="linearGradient1622" x1="-110" x2="-110" y1="-255.64" y2="-269.64" gradientUnits="userSpaceOnUse" xlink:href="#selected_bg_color"/><linearGradient id="linearGradient1624" x1="-102" x2="-102" y1="30" y2="16" gradientUnits="userSpaceOnUse" xlink:href="#selected_bg_color"/><linearGradient id="linearGradient1626" x1="-110" x2="-110" y1="-255.64" y2="-269.64" gradientUnits="userSpaceOnUse" xlink:href="#selected_bg_color"/><linearGradient id="linearGradient1628" x1="-102" x2="-102" y1="30" y2="16" gradientUnits="userSpaceOnUse" xlink:href="#selected_bg_color"/></defs><g id="layer1" transform="translate(0,-138)" style="display:inline"><rect style="color:#000;fill:#f9fafb" id="rect119" width="121" height="138" x="0" y="-276" rx="0" ry="0" transform="scale(1,-1)"/><rect style="fill:#1b1d24;stroke-width:0" id="rect121" width="121" height="138" x="121" y="138"/></g><g id="layer2" transform="translate(0,-138)"><g id="checkbox-checked-selectionmode" transform="translate(-462,54.639999)"><rect id="rect127" width="40" height="40" x="462" y="179.36" rx="2" ry="2" style="fill:none;stroke-width:0"/><path id="path129" d="m 6,100 c -1.108,0 -2,0.892 -2,2 v 28 c 0,1.108 0.892,2 2,2 h 28 c 1.108,0 2,-0.892 2,-2 v -28 c 0,-1.108 -0.892,-2 -2,-2 z" transform="translate(462,83.362)" style="fill:#fff"/><path id="path131" d="m 6,100 c -1.108,0 -2,0.892 -2,2 v 28 c 0,1.108 0.892,2 2,2 h 28 c 1.108,0 2,-0.892 2,-2 v -28 c 0,-1.108 -0.892,-2 -2,-2 z m 0,1 h 28 c 0.554,0 1,0.446 1,1 v 28 c 0,0.554 -0.446,1 -1,1 H 6 c -0.554,0 -1,-0.446 -1,-1 v -28 c 0,-0.554 0.446,-1 1,-1 z" transform="translate(462,83.362)" style="fill:url(#ax)"/><g id="g135" transform="translate(-2.2045,1.973)"><path id="path133" d="m 491.36,188.95 -9.5312,9.5625 -4.7812,-4.7812 -3.1876,3.1875 4.7813,4.7812 3.1875,3.1875 3.1562,-3.1875 9.5626,-9.5625 z" style="fill:url(#au)"/></g></g><g id="checkbox-selectionmode" transform="translate(-417,54.639999)"><rect id="rect138" width="31" height="31" x="466.5" y="183.86" rx="2" ry="2" style="fill:#fff;stroke:#cbcccc"/><g id="g142" transform="translate(-2.2045,1.973)"><path id="path140" d="m 491.36,188.95 -9.5312,9.5625 -4.7812,-4.7812 -3.1876,3.1875 4.7813,4.7812 3.1875,3.1875 3.1562,-3.1875 9.5626,-9.5625 z" style="fill:#cbcccc"/></g><rect id="rect144" width="40" height="40" x="462" y="179.36" rx="2" ry="2" style="fill:none;stroke-width:0"/></g><g id="checkbox-checked-selectionmode-dark" transform="translate(-342,54.639999)"><path id="path147" d="m 126,100 c -1.108,0 -2,0.892 -2,2 v 28 c 0,1.108 0.892,2 2,2 h 28 c 1.108,0 2,-0.892 2,-2 v -28 c 0,-1.108 -0.892,-2 -2,-2 z" transform="translate(342,83.362)" style="fill:#2f3139"/><path id="path149" d="m 126,100 c -1.108,0 -2,0.892 -2,2 v 28 c 0,1.108 0.892,2 2,2 h 28 c 1.108,0 2,-0.892 2,-2 v -28 c 0,-1.108 -0.892,-2 -2,-2 z m 0,1 h 28 c 0.554,0 1,0.446 1,1 v 28 c 0,0.554 -0.446,1 -1,1 h -28 c -0.554,0 -1,-0.446 -1,-1 v -28 c 0,-0.554 0.446,-1 1,-1 z" transform="translate(342,83.362)" style="fill:url(#az)"/><g id="g153" transform="translate(-2.2045,1.973)"><path id="path151" d="m 491.36,188.95 -9.5312,9.5625 -4.7812,-4.7812 -3.1876,3.1875 4.7813,4.7812 3.1875,3.1875 3.1562,-3.1875 9.5626,-9.5625 z" style="fill:url(#ay)"/></g><rect id="rect155" width="40" height="40" x="462" y="179.36" rx="2" ry="2" style="fill:none;stroke-width:0"/></g><g id="checkbox-selectionmode-dark" transform="translate(-296.62,54.639999)"><rect id="rect158" width="31" height="31" x="466.5" y="183.86" rx="2" ry="2" style="fill:#2b3035;stroke:#696e75"/><g id="g162" transform="translate(-2.2045,1.973)"><path id="path160" d="m 491.36,188.95 -9.5312,9.5625 -4.7812,-4.7812 -3.1876,3.1875 4.7813,4.7812 3.1875,3.1875 3.1562,-3.1875 9.5626,-9.5625 z" style="fill:#696e75"/></g><rect id="rect164" width="40" height="40" x="462" y="179.36" rx="2" ry="2" style="fill:none;stroke-width:0"/></g><g id="switch-active" transform="translate(156,440.64)"><path style="fill:#9d9d9d;paint-order:stroke fill markers" id="path178" d="m -132,13 c -5.54,0 -10,4.46 -10,10 0,5.54 4.46,10 10,10 h 30 c 5.54,0 10,-4.46 10,-10 0,-5.54 -4.46,-10 -10,-10 z m 0,1 h 30 c 4.986,0 9,4.014 9,9 0,4.986 -4.014,9 -9,9 h -30 c -4.986,0 -9,-4.014 -9,-9 0,-4.986 4.014,-9 9,-9 z" transform="translate(-8,-285.64)"/><circle style="opacity:.6;fill:url(#linearGradient1618);paint-order:stroke fill markers" id="circle180" cx="-110" cy="-262.64" r="7"/><path style="fill:url(#linearGradient1620);paint-order:stroke fill markers" id="path182" d="m -102,16 a 7,7 0 0 0 -7,7 7,7 0 0 0 7,7 7,7 0 0 0 7,-7 7,7 0 0 0 -7,-7 z m 0,1 a 6,6 0 0 1 6,6 6,6 0 0 1 -6,6 6,6 0 0 1 -6,-6 6,6 0 0 1 6,-6 z" transform="translate(-8,-285.64)"/></g><g id="switch" transform="translate(156,444.64)"><path style="fill:#9d9d9d;paint-order:stroke fill markers" id="path185" d="m -140,-302.64 c -5.54,0 -10,4.46 -10,10 0,5.54 4.46,10 10,10 h 30 c 5.54,0 10,-4.46 10,-10 0,-5.54 -4.46,-10 -10,-10 z m 0,1 h 30 c 4.986,0 9,4.014 9,9 0,4.986 -4.014,9 -9,9 h -30 c -4.986,0 -9,-4.014 -9,-9 0,-4.986 4.014,-9 9,-9 z"/><circle style="opacity:.15;paint-order:stroke fill markers" id="circle187" cx="-140" cy="-292.64" r="7"/><path style="fill:#9d9d9d;paint-order:stroke fill markers" id="path189" d="m -140,-299.64 a 7,7 0 0 0 -7,7 7,7 0 0 0 7,7 7,7 0 0 0 7,-7 7,7 0 0 0 -7,-7 z m 0,1 a 6,6 0 0 1 6,6 6,6 0 0 1 -6,6 6,6 0 0 1 -6,-6 6,6 0 0 1 6,-6 z"/></g><g style="opacity:.5" id="switch-active-insensitive" transform="translate(216,440.64)"><path style="opacity:1;fill:#9d9d9d;paint-order:stroke fill markers" id="path192" d="m -132,13 c -5.54,0 -10,4.46 -10,10 0,5.54 4.46,10 10,10 h 30 c 5.54,0 10,-4.46 10,-10 0,-5.54 -4.46,-10 -10,-10 z m 0,1 h 30 c 4.986,0 9,4.014 9,9 0,4.986 -4.014,9 -9,9 h -30 c -4.986,0 -9,-4.014 -9,-9 0,-4.986 4.014,-9 9,-9 z" transform="translate(-8,-285.64)"/><circle style="opacity:.6;fill:url(#linearGradient1622);paint-order:stroke fill markers" id="circle194" cx="-110" cy="-262.64" r="7"/><path style="opacity:1;fill:url(#linearGradient1624);paint-order:stroke fill markers" id="path196" d="m -102,16 a 7,7 0 0 0 -7,7 7,7 0 0 0 7,7 7,7 0 0 0 7,-7 7,7 0 0 0 -7,-7 z m 0,1 a 6,6 0 0 1 6,6 6,6 0 0 1 -6,6 6,6 0 0 1 -6,-6 6,6 0 0 1 6,-6 z" transform="translate(-8,-285.64)"/></g><g style="opacity:.5" id="switch-insensitive" transform="translate(216,444.64)"><path style="opacity:1;fill:#9d9d9d;paint-order:stroke fill markers" id="path199" d="m -140,-302.64 c -5.54,0 -10,4.46 -10,10 0,5.54 4.46,10 10,10 h 30 c 5.54,0 10,-4.46 10,-10 0,-5.54 -4.46,-10 -10,-10 z m 0,1 h 30 c 4.986,0 9,4.014 9,9 0,4.986 -4.014,9 -9,9 h -30 c -4.986,0 -9,-4.014 -9,-9 0,-4.986 4.014,-9 9,-9 z"/><circle style="opacity:.15;paint-order:stroke fill markers" id="circle201" cx="-140" cy="-292.64" r="7"/><path style="opacity:1;fill:#9d9d9d;paint-order:stroke fill markers" id="path203" d="m -140,-299.64 a 7,7 0 0 0 -7,7 7,7 0 0 0 7,7 7,7 0 0 0 7,-7 7,7 0 0 0 -7,-7 z m 0,1 a 6,6 0 0 1 6,6 6,6 0 0 1 -6,6 6,6 0 0 1 -6,-6 6,6 0 0 1 6,-6 z"/></g><g id="switch-active-dark" transform="translate(278,440.64)"><path style="fill:gray;paint-order:stroke fill markers" id="path206" d="m -132,13 c -5.54,0 -10,4.46 -10,10 0,5.54 4.46,10 10,10 h 30 c 5.54,0 10,-4.46 10,-10 0,-5.54 -4.46,-10 -10,-10 z m 0,1 h 30 c 4.986,0 9,4.014 9,9 0,4.986 -4.014,9 -9,9 h -30 c -4.986,0 -9,-4.014 -9,-9 0,-4.986 4.014,-9 9,-9 z" transform="translate(-8,-285.64)"/><circle style="opacity:.35;fill:url(#linearGradient1626);paint-order:stroke fill markers" id="circle208" cx="-110" cy="-262.64" r="7"/><path style="opacity:.5;fill:url(#linearGradient1628);paint-order:stroke fill markers" id="path210" d="m -102,16 a 7,7 0 0 0 -7,7 7,7 0 0 0 7,7 7,7 0 0 0 7,-7 7,7 0 0 0 -7,-7 z m 0,1 a 6,6 0 0 1 6,6 6,6 0 0 1 -6,6 6,6 0 0 1 -6,-6 6,6 0 0 1 6,-6 z" transform="translate(-8,-285.64)"/></g><g id="switch-dark" transform="translate(278,444.64)"><path style="fill:gray;paint-order:stroke fill markers" id="path213" d="m -140,-302.64 c -5.54,0 -10,4.46 -10,10 0,5.54 4.46,10 10,10 h 30 c 5.54,0 10,-4.46 10,-10 0,-5.54 -4.46,-10 -10,-10 z m 0,1 h 30 c 4.986,0 9,4.014 9,9 0,4.986 -4.014,9 -9,9 h -30 c -4.986,0 -9,-4.014 -9,-9 0,-4.986 4.014,-9 9,-9 z"/><circle style="opacity:.15;fill:#fff;paint-order:stroke fill markers" id="circle215" cx="-140" cy="-292.64" r="7"/><path style="fill:gray;paint-order:stroke fill markers" id="path217" d="m -140,-299.64 a 7,7 0 0 0 -7,7 7,7 0 0 0 7,7 7,7 0 0 0 7,-7 7,7 0 0 0 -7,-7 z m 0,1 a 6,6 0 0 1 6,6 6,6 0 0 1 -6,6 6,6 0 0 1 -6,-6 6,6 0 0 1 6,-6 z"/></g><g style="opacity:.5" id="switch-active-insensitive-dark" transform="translate(338,440.64)"><path style="opacity:1;fill:gray;paint-order:stroke fill markers" id="path220" d="m -132,13 c -5.54,0 -10,4.46 -10,10 0,5.54 4.46,10 10,10 h 30 c 5.54,0 10,-4.46 10,-10 0,-5.54 -4.46,-10 -10,-10 z m 0,1 h 30 c 4.986,0 9,4.014 9,9 0,4.986 -4.014,9 -9,9 h -30 c -4.986,0 -9,-4.014 -9,-9 0,-4.986 4.014,-9 9,-9 z" transform="translate(-8,-285.64)"/><circle style="opacity:.35;fill:url(#l);paint-order:stroke fill markers" id="circle222" cx="-110" cy="-262.64" r="7"/><path style="opacity:.5;fill:url(#m);paint-order:stroke fill markers" id="path224" d="m -102,16 a 7,7 0 0 0 -7,7 7,7 0 0 0 7,7 7,7 0 0 0 7,-7 7,7 0 0 0 -7,-7 z m 0,1 a 6,6 0 0 1 6,6 6,6 0 0 1 -6,6 6,6 0 0 1 -6,-6 6,6 0 0 1 6,-6 z" transform="translate(-8,-285.64)"/></g><g style="opacity:.5" id="switch-insensitive-dark" transform="translate(338,444.64)"><path style="opacity:1;fill:gray;paint-order:stroke fill markers" id="path227" d="m -140,-302.64 c -5.54,0 -10,4.46 -10,10 0,5.54 4.46,10 10,10 h 30 c 5.54,0 10,-4.46 10,-10 0,-5.54 -4.46,-10 -10,-10 z m 0,1 h 30 c 4.986,0 9,4.014 9,9 0,4.986 -4.014,9 -9,9 h -30 c -4.986,0 -9,-4.014 -9,-9 0,-4.986 4.014,-9 9,-9 z"/><circle style="opacity:.15;fill:#fff;paint-order:stroke fill markers" id="circle229" cx="-140" cy="-292.64" r="7"/><path style="opacity:1;fill:gray;paint-order:stroke fill markers" id="path231" d="m -140,-299.64 a 7,7 0 0 0 -7,7 7,7 0 0 0 7,7 7,7 0 0 0 7,-7 7,7 0 0 0 -7,-7 z m 0,1 a 6,6 0 0 1 6,6 6,6 0 0 1 -6,6 6,6 0 0 1 -6,-6 6,6 0 0 1 6,-6 z"/></g><rect style="color:#000;fill:url(#aw)" id="selected-dot" width="4" height="4" x="220" y="254" rx="1.999" ry="2"/><g id="checkbox-checked" transform="matrix(3.7795276,0,0,3.7795276,-130.00002,-283.51967)"><rect id="rect2719" width="4.233" height="4.233" x="40.481" y="126.079" ry="0" style="opacity:1;fill:none;stroke-width:.14111206;paint-order:stroke fill markers"/><path style="color:#000;fill:#9d9d9d;stroke-width:0" id="path268" d="m 41.274997,126.34374 c -0.293158,0 -0.529167,0.23601 -0.529167,0.52917 v 2.91042 c 0,0.29316 0.236006,0.52916 0.529167,0.52916 h 2.910416 c 0.293159,0 0.529167,-0.236 0.529167,-0.52916 v -2.91042 c 0,-0.29316 -0.236006,-0.52917 -0.529167,-0.52917 z m 0,0.26459 h 2.910416 c 0.14658,0 0.264584,0.118 0.264584,0.26458 v 2.91042 c 0,0.14658 -0.118004,0.26458 -0.264584,0.26458 h -2.910416 c -0.146579,0 -0.264583,-0.118 -0.264583,-0.26458 v -2.91042 c 0,-0.14658 0.118004,-0.26458 0.264583,-0.26458 z"/><path id="path270" d="m 43.759329,127.48675 -1.309476,1.30948 -0.748268,-0.74827 -0.187068,0.18707 0.935355,0.93535 1.496536,-1.49653 z" style="fill:url(#linearGradient3884);stroke-width:.26458332"/></g><g id="checkbox-mixed" transform="matrix(3.7795276,0,0,3.7795276,-130.00002,-283.51967)"><rect style="opacity:1;fill:none;stroke-width:.14111206;paint-order:stroke fill markers" id="rect2721" width="4.233" height="4.233" x="45.773" y="126.079" ry="0"/><rect style="fill:url(#linearGradient3886);stroke-width:.26458332" id="rect277" width=".265" height="2.381" x="-128.46" y="46.831" ry="0" transform="rotate(-90)"/><path style="color:#000;fill:#9d9d9d;stroke-width:0" id="path279" d="m 46.566663,126.34374 c -0.293158,0 -0.529166,0.23601 -0.529166,0.52917 v 2.91042 c 0,0.29316 0.236005,0.52916 0.529166,0.52916 h 2.910417 c 0.293158,0 0.529167,-0.236 0.529167,-0.52916 v -2.91042 c 0,-0.29316 -0.236006,-0.52917 -0.529167,-0.52917 z m 0,0.26459 h 2.910417 c 0.146579,0 0.264583,0.118 0.264583,0.26458 v 2.91042 c 0,0.14658 -0.118004,0.26458 -0.264583,0.26458 h -2.910417 c -0.146579,0 -0.264583,-0.118 -0.264583,-0.26458 v -2.91042 c 0,-0.14658 0.118004,-0.26458 0.264583,-0.26458 z"/></g><g id="radio-checked" transform="matrix(3.7795276,0,0,3.7795276,-130.00002,-283.51967)"><rect id="rect2723" width="4.233" height="4.233" x="56.356" y="126.079" ry="0" style="opacity:1;fill:none;stroke-width:.14111206;paint-order:stroke fill markers"/><rect style="color:#000;fill:url(#linearGradient3888);stroke-width:.26458332" id="rect284" width="1.323" height="1.323" x="57.944" y="127.667" rx=".661" ry=".661"/><path style="fill:#9d9d9d;stroke-width:.26458332;paint-order:stroke fill markers" id="path286" d="m 58.605205,126.34374 a 1.984375,1.984375 0 0 0 -1.984375,1.98438 1.984375,1.984375 0 0 0 1.984375,1.98437 1.984375,1.984375 0 0 0 1.984375,-1.98437 1.984375,1.984375 0 0 0 -1.984375,-1.98438 z m 0,0.26459 a 1.7197916,1.7197916 0 0 1 1.719792,1.71979 1.7197916,1.7197916 0 0 1 -1.719792,1.71979 1.7197916,1.7197916 0 0 1 -1.719791,-1.71979 1.7197916,1.7197916 0 0 1 1.719791,-1.71979 z"/></g><g id="radio-mixed" transform="matrix(3.7795276,0,0,3.7795276,-130.00002,-283.51967)"><rect style="opacity:1;fill:none;stroke-width:.14111206;paint-order:stroke fill markers" id="rect2727" width="4.233" height="4.233" x="61.648" y="126.079" ry="0"/><path style="fill:#9d9d9d;stroke-width:.26458332;paint-order:stroke fill markers" id="path291" d="m 63.896872,126.34374 a 1.984375,1.984375 0 0 0 -1.984375,1.98438 1.984375,1.984375 0 0 0 1.984375,1.98437 1.984375,1.984375 0 0 0 1.984375,-1.98437 1.984375,1.984375 0 0 0 -1.984375,-1.98438 z m 0,0.26459 a 1.7197916,1.7197916 0 0 1 1.719792,1.71979 1.7197916,1.7197916 0 0 1 -1.719792,1.71979 1.7197916,1.7197916 0 0 1 -1.719792,-1.71979 1.7197916,1.7197916 0 0 1 1.719792,-1.71979 z"/><rect style="fill:url(#linearGradient3890);stroke-width:.26458332" id="rect293" width=".265" height="2.381" x="-128.46" y="62.706" ry="0" transform="rotate(-90)"/></g><g id="checkbox-unchecked" transform="matrix(3.7795276,0,0,3.7795276,-130.00002,-283.51967)"><rect style="opacity:1;fill:none;stroke-width:.14111206;paint-order:stroke fill markers" id="rect296" width="4.233" height="4.233" x="35.19" y="126.079" ry="0"/><path style="color:#000;fill:#9d9d9d;stroke-width:0" id="path298" d="m 35.98333,126.34374 c -0.293158,0 -0.529166,0.23601 -0.529166,0.52917 v 2.91042 c 0,0.29316 0.236005,0.52916 0.529166,0.52916 h 2.910417 c 0.293158,0 0.529167,-0.236 0.529167,-0.52916 v -2.91042 c 0,-0.29316 -0.236006,-0.52917 -0.529167,-0.52917 z m 0,0.26459 h 2.910417 c 0.146579,0 0.264583,0.118 0.264583,0.26458 v 2.91042 c 0,0.14658 -0.118004,0.26458 -0.264583,0.26458 H 35.98333 c -0.146579,0 -0.264583,-0.118 -0.264583,-0.26458 v -2.91042 c 0,-0.14658 0.118004,-0.26458 0.264583,-0.26458 z"/></g><g id="radio-unchecked" transform="matrix(3.7795276,0,0,3.7795276,-130.00002,-283.51967)"><rect style="opacity:1;fill:none;stroke-width:.14111206;paint-order:stroke fill markers" id="rect2725" width="4.233" height="4.233" x="51.065" y="126.079" ry="0"/><path style="fill:#9d9d9d;stroke-width:.26458332;paint-order:stroke fill markers" id="path303" d="m 53.313539,126.34374 a 1.984375,1.984375 0 0 0 -1.984375,1.98438 1.984375,1.984375 0 0 0 1.984375,1.98437 1.984375,1.984375 0 0 0 1.984375,-1.98437 1.984375,1.984375 0 0 0 -1.984375,-1.98438 z m 0,0.26459 a 1.7197916,1.7197916 0 0 1 1.719791,1.71979 1.7197916,1.7197916 0 0 1 -1.719791,1.71979 1.7197916,1.7197916 0 0 1 -1.719792,-1.71979 1.7197916,1.7197916 0 0 1 1.719792,-1.71979 z"/></g><g id="checkbox-checked-dark" transform="matrix(3.7795276,0,0,3.7795276,-130.00002,-283.51967)"><rect style="opacity:1;fill:none;stroke-width:.14111206;paint-order:stroke fill markers" id="rect2731" width="4.233" height="4.233" x="72.496" y="126.079" ry="0"/><path style="color:#000;fill:gray;stroke-width:0" id="path308" d="m 73.289581,126.34374 c -0.293158,0 -0.529167,0.23601 -0.529167,0.52917 v 2.91042 c 0,0.29316 0.236006,0.52916 0.529167,0.52916 h 2.910416 c 0.293159,0 0.529167,-0.236 0.529167,-0.52916 v -2.91042 c 0,-0.29316 -0.236006,-0.52917 -0.529167,-0.52917 z m 0,0.26459 h 2.910416 c 0.14658,0 0.264584,0.118 0.264584,0.26458 v 2.91042 c 0,0.14658 -0.118004,0.26458 -0.264584,0.26458 h -2.910416 c -0.146579,0 -0.264583,-0.118 -0.264583,-0.26458 v -2.91042 c 0,-0.14658 0.118004,-0.26458 0.264583,-0.26458 z"/><path id="path310" d="m 75.773915,127.48675 -1.309476,1.30948 -0.748268,-0.74827 -0.187068,0.18707 0.935355,0.93535 1.496536,-1.49653 z" style="fill:url(#linearGradient3892);stroke-width:.26458332"/></g><g id="checkbox-mixed-dark" transform="matrix(3.7795276,0,0,3.7795276,-130.00002,-283.51967)"><rect id="rect2733" width="4.233" height="4.233" x="77.787" y="126.079" ry="0" style="opacity:1;fill:none;stroke-width:.14111206;paint-order:stroke fill markers"/><rect style="fill:url(#linearGradient3894);stroke-width:.26458332" id="rect317" width=".265" height="2.381" x="-128.46" y="78.846" ry="0" transform="rotate(-90)"/><path style="color:#000;fill:gray;stroke-width:0" id="path319" d="m 78.581247,126.34374 c -0.293158,0 -0.529166,0.23601 -0.529166,0.52917 v 2.91042 c 0,0.29316 0.236005,0.52916 0.529166,0.52916 h 2.910417 c 0.293158,0 0.529167,-0.236 0.529167,-0.52916 v -2.91042 c 0,-0.29316 -0.236006,-0.52917 -0.529167,-0.52917 z m 0,0.26459 h 2.910417 c 0.146579,0 0.264583,0.118 0.264583,0.26458 v 2.91042 c 0,0.14658 -0.118004,0.26458 -0.264583,0.26458 h -2.910417 c -0.146579,0 -0.264583,-0.118 -0.264583,-0.26458 v -2.91042 c 0,-0.14658 0.118004,-0.26458 0.264583,-0.26458 z"/></g><g id="radio-checked-dark" transform="matrix(3.7795276,0,0,3.7795276,-130.00002,-283.51967)"><rect id="rect2737" width="4.233" height="4.233" x="88.371" y="126.079" ry="0" style="opacity:1;fill:none;stroke-width:.14111206;paint-order:stroke fill markers"/><rect style="color:#000;fill:url(#linearGradient3896);stroke-width:.26458332" id="rect324" width="1.323" height="1.323" x="89.958" y="127.667" rx=".661" ry=".661"/><path style="fill:gray;stroke-width:.26458332;paint-order:stroke fill markers" id="path326" d="m 90.619792,126.34374 a 1.984375,1.984375 0 0 0 -1.984375,1.98438 1.984375,1.984375 0 0 0 1.984375,1.98437 1.984375,1.984375 0 0 0 1.984375,-1.98437 1.984375,1.984375 0 0 0 -1.984375,-1.98438 z m 0,0.26459 a 1.7197916,1.7197916 0 0 1 1.719792,1.71979 1.7197916,1.7197916 0 0 1 -1.719792,1.71979 1.7197916,1.7197916 0 0 1 -1.719791,-1.71979 1.7197916,1.7197916 0 0 1 1.719791,-1.71979 z"/></g><g id="radio-mixed-dark" transform="matrix(3.7795276,0,0,3.7795276,-130.00002,-283.51967)"><rect style="opacity:1;fill:none;stroke-width:.14111206;paint-order:stroke fill markers" id="rect2739" width="4.233" height="4.233" x="93.662" y="126.079" ry="0"/><path style="fill:gray;stroke-width:.26458332;paint-order:stroke fill markers" id="path331" d="m 95.911459,126.34374 a 1.984375,1.984375 0 0 0 -1.984375,1.98438 1.984375,1.984375 0 0 0 1.984375,1.98437 1.984375,1.984375 0 0 0 1.984375,-1.98437 1.984375,1.984375 0 0 0 -1.984375,-1.98438 z m 0,0.26459 a 1.7197916,1.7197916 0 0 1 1.719792,1.71979 1.7197916,1.7197916 0 0 1 -1.719792,1.71979 1.7197916,1.7197916 0 0 1 -1.719792,-1.71979 1.7197916,1.7197916 0 0 1 1.719792,-1.71979 z"/><rect style="fill:url(#linearGradient3898);stroke-width:.26458332" id="rect333" width=".265" height="2.381" x="-128.46" y="94.721" ry="0" transform="rotate(-90)"/></g><g id="checkbox-unchecked-dark" transform="matrix(3.7795276,0,0,3.7795276,-130.00002,-283.51967)"><rect id="rect2729" width="4.233" height="4.233" x="67.204" y="126.079" ry="0" style="opacity:1;fill:none;stroke-width:.14111206;paint-order:stroke fill markers"/><path style="color:#000;fill:gray;stroke-width:0" id="path338" d="m 67.997914,126.34374 c -0.293158,0 -0.529166,0.23601 -0.529166,0.52917 v 2.91042 c 0,0.29316 0.236005,0.52916 0.529166,0.52916 h 2.910417 c 0.293158,0 0.529167,-0.236 0.529167,-0.52916 v -2.91042 c 0,-0.29316 -0.236006,-0.52917 -0.529167,-0.52917 z m 0,0.26459 h 2.910417 c 0.146579,0 0.264583,0.118 0.264583,0.26458 v 2.91042 c 0,0.14658 -0.118004,0.26458 -0.264583,0.26458 h -2.910417 c -0.146579,0 -0.264583,-0.118 -0.264583,-0.26458 v -2.91042 c 0,-0.14658 0.118004,-0.26458 0.264583,-0.26458 z"/></g><g id="radio-unchecked-dark" transform="matrix(3.7795276,0,0,3.7795276,-130.00002,-283.51967)"><rect style="opacity:1;fill:none;stroke-width:.14111206;paint-order:stroke fill markers" id="rect2735" width="4.233" height="4.233" x="83.079" y="126.079" ry="0"/><path style="fill:gray;stroke-width:.26458332;paint-order:stroke fill markers" id="path343" d="m 85.328126,126.34374 a 1.984375,1.984375 0 0 0 -1.984375,1.98438 1.984375,1.984375 0 0 0 1.984375,1.98437 1.984375,1.984375 0 0 0 1.984375,-1.98437 1.984375,1.984375 0 0 0 -1.984375,-1.98438 z m 0,0.26459 a 1.7197916,1.7197916 0 0 1 1.719791,1.71979 1.7197916,1.7197916 0 0 1 -1.719791,1.71979 1.7197916,1.7197916 0 0 1 -1.719792,-1.71979 1.7197916,1.7197916 0 0 1 1.719792,-1.71979 z"/></g><g id="checkbox-checked-insensitive" transform="matrix(3.7795276,0,0,3.7795276,-130.00002,-259.51966)" style="opacity:.35"><rect style="opacity:1;fill:none;stroke-width:.14111206;paint-order:stroke fill markers" id="rect2880" width="4.233" height="4.233" x="40.481" y="126.079" ry="0"/><path id="path2882" d="m 41.274997,126.34374 c -0.293158,0 -0.529167,0.23601 -0.529167,0.52917 v 2.91042 c 0,0.29316 0.236006,0.52916 0.529167,0.52916 h 2.910416 c 0.293159,0 0.529167,-0.236 0.529167,-0.52916 v -2.91042 c 0,-0.29316 -0.236006,-0.52917 -0.529167,-0.52917 z m 0,0.26459 h 2.910416 c 0.14658,0 0.264584,0.118 0.264584,0.26458 v 2.91042 c 0,0.14658 -0.118004,0.26458 -0.264584,0.26458 h -2.910416 c -0.146579,0 -0.264583,-0.118 -0.264583,-0.26458 v -2.91042 c 0,-0.14658 0.118004,-0.26458 0.264583,-0.26458 z" style="color:#000;fill:#9d9d9d;stroke-width:0"/><path style="fill:url(#linearGradient2968);stroke-width:.26458332" id="path2884" d="m 43.759329,127.48675 -1.309476,1.30948 -0.748268,-0.74827 -0.187068,0.18707 0.935355,0.93535 1.496536,-1.49653 z"/></g><g id="checkbox-mixed-insensitive" transform="matrix(3.7795276,0,0,3.7795276,-130.00002,-259.51966)" style="opacity:.35"><rect id="rect2888" width="4.233" height="4.233" x="45.773" y="126.079" ry="0" style="opacity:1;fill:none;stroke-width:.14111206;paint-order:stroke fill markers"/><rect id="rect2890" width=".265" height="2.381" x="-128.46" y="46.831" ry="0" transform="rotate(-90)" style="fill:url(#linearGradient2970);stroke-width:.26458332"/><path id="path2892" d="m 46.566663,126.34374 c -0.293158,0 -0.529166,0.23601 -0.529166,0.52917 v 2.91042 c 0,0.29316 0.236005,0.52916 0.529166,0.52916 h 2.910417 c 0.293158,0 0.529167,-0.236 0.529167,-0.52916 v -2.91042 c 0,-0.29316 -0.236006,-0.52917 -0.529167,-0.52917 z m 0,0.26459 h 2.910417 c 0.146579,0 0.264583,0.118 0.264583,0.26458 v 2.91042 c 0,0.14658 -0.118004,0.26458 -0.264583,0.26458 h -2.910417 c -0.146579,0 -0.264583,-0.118 -0.264583,-0.26458 v -2.91042 c 0,-0.14658 0.118004,-0.26458 0.264583,-0.26458 z" style="color:#000;fill:#9d9d9d;stroke-width:0"/></g><g id="radio-checked-insensitive" transform="matrix(3.7795276,0,0,3.7795276,-130.00002,-259.51966)" style="opacity:.35"><rect style="opacity:1;fill:none;stroke-width:.14111206;paint-order:stroke fill markers" id="rect2896" width="4.233" height="4.233" x="56.356" y="126.079" ry="0"/><rect id="rect2898" width="1.323" height="1.323" x="57.944" y="127.667" rx=".661" ry=".661" style="color:#000;fill:url(#linearGradient2972);stroke-width:.26458332"/><path id="path2900" d="m 58.605205,126.34374 a 1.984375,1.984375 0 0 0 -1.984375,1.98438 1.984375,1.984375 0 0 0 1.984375,1.98437 1.984375,1.984375 0 0 0 1.984375,-1.98437 1.984375,1.984375 0 0 0 -1.984375,-1.98438 z m 0,0.26459 a 1.7197916,1.7197916 0 0 1 1.719792,1.71979 1.7197916,1.7197916 0 0 1 -1.719792,1.71979 1.7197916,1.7197916 0 0 1 -1.719791,-1.71979 1.7197916,1.7197916 0 0 1 1.719791,-1.71979 z" style="fill:#9d9d9d;stroke-width:.26458332;paint-order:stroke fill markers"/></g><g id="radio-mixed-insensitive" transform="matrix(3.7795276,0,0,3.7795276,-130.00002,-259.51966)" style="opacity:.35"><rect id="rect2904" width="4.233" height="4.233" x="61.648" y="126.079" ry="0" style="opacity:1;fill:none;stroke-width:.14111206;paint-order:stroke fill markers"/><path id="path2906" d="m 63.896872,126.34374 a 1.984375,1.984375 0 0 0 -1.984375,1.98438 1.984375,1.984375 0 0 0 1.984375,1.98437 1.984375,1.984375 0 0 0 1.984375,-1.98437 1.984375,1.984375 0 0 0 -1.984375,-1.98438 z m 0,0.26459 a 1.7197916,1.7197916 0 0 1 1.719792,1.71979 1.7197916,1.7197916 0 0 1 -1.719792,1.71979 1.7197916,1.7197916 0 0 1 -1.719792,-1.71979 1.7197916,1.7197916 0 0 1 1.719792,-1.71979 z" style="fill:#9d9d9d;stroke-width:.26458332;paint-order:stroke fill markers"/><rect id="rect2908" width=".265" height="2.381" x="-128.46" y="62.706" ry="0" transform="rotate(-90)" style="fill:url(#linearGradient2974);stroke-width:.26458332"/></g><g id="checkbox-unchecked-insensitive" transform="matrix(3.7795276,0,0,3.7795276,-130.00002,-259.51966)" style="opacity:.35"><rect id="rect2912" width="4.233" height="4.233" x="35.19" y="126.079" ry="0" style="opacity:1;fill:none;stroke-width:.14111206;paint-order:stroke fill markers"/><path id="path2914" d="m 35.98333,126.34374 c -0.293158,0 -0.529166,0.23601 -0.529166,0.52917 v 2.91042 c 0,0.29316 0.236005,0.52916 0.529166,0.52916 h 2.910417 c 0.293158,0 0.529167,-0.236 0.529167,-0.52916 v -2.91042 c 0,-0.29316 -0.236006,-0.52917 -0.529167,-0.52917 z m 0,0.26459 h 2.910417 c 0.146579,0 0.264583,0.118 0.264583,0.26458 v 2.91042 c 0,0.14658 -0.118004,0.26458 -0.264583,0.26458 H 35.98333 c -0.146579,0 -0.264583,-0.118 -0.264583,-0.26458 v -2.91042 c 0,-0.14658 0.118004,-0.26458 0.264583,-0.26458 z" style="color:#000;fill:#9d9d9d;stroke-width:0"/></g><g id="radio-unchecked-insensitive" transform="matrix(3.7795276,0,0,3.7795276,-130.00002,-259.51966)" style="opacity:.35"><rect id="rect2918" width="4.233" height="4.233" x="51.065" y="126.079" ry="0" style="opacity:1;fill:none;stroke-width:.14111206;paint-order:stroke fill markers"/><path id="path2920" d="m 53.313539,126.34374 a 1.984375,1.984375 0 0 0 -1.984375,1.98438 1.984375,1.984375 0 0 0 1.984375,1.98437 1.984375,1.984375 0 0 0 1.984375,-1.98437 1.984375,1.984375 0 0 0 -1.984375,-1.98438 z m 0,0.26459 a 1.7197916,1.7197916 0 0 1 1.719791,1.71979 1.7197916,1.7197916 0 0 1 -1.719791,1.71979 1.7197916,1.7197916 0 0 1 -1.719792,-1.71979 1.7197916,1.7197916 0 0 1 1.719792,-1.71979 z" style="fill:#9d9d9d;stroke-width:.26458332;paint-order:stroke fill markers"/></g><g id="checkbox-checked-insensitive-dark" transform="matrix(3.7795276,0,0,3.7795276,-130.00002,-259.51966)" style="opacity:.35"><rect id="rect2924" width="4.233" height="4.233" x="72.496" y="126.079" ry="0" style="opacity:1;fill:none;stroke-width:.14111206;paint-order:stroke fill markers"/><path id="path2926" d="m 73.289581,126.34374 c -0.293158,0 -0.529167,0.23601 -0.529167,0.52917 v 2.91042 c 0,0.29316 0.236006,0.52916 0.529167,0.52916 h 2.910416 c 0.293159,0 0.529167,-0.236 0.529167,-0.52916 v -2.91042 c 0,-0.29316 -0.236006,-0.52917 -0.529167,-0.52917 z m 0,0.26459 h 2.910416 c 0.14658,0 0.264584,0.118 0.264584,0.26458 v 2.91042 c 0,0.14658 -0.118004,0.26458 -0.264584,0.26458 h -2.910416 c -0.146579,0 -0.264583,-0.118 -0.264583,-0.26458 v -2.91042 c 0,-0.14658 0.118004,-0.26458 0.264583,-0.26458 z" style="color:#000;fill:gray;stroke-width:0"/><path style="fill:url(#linearGradient2976);stroke-width:.26458332" id="path2928" d="m 75.773915,127.48675 -1.309476,1.30948 -0.748268,-0.74827 -0.187068,0.18707 0.935355,0.93535 1.496536,-1.49653 z"/></g><g id="checkbox-mixed-insensitive-dark" transform="matrix(3.7795276,0,0,3.7795276,-130.00002,-259.51966)" style="opacity:.35"><rect style="opacity:1;fill:none;stroke-width:.14111206;paint-order:stroke fill markers" id="rect2932" width="4.233" height="4.233" x="77.787" y="126.079" ry="0"/><rect id="rect2934" width=".265" height="2.381" x="-128.46" y="78.846" ry="0" transform="rotate(-90)" style="fill:url(#linearGradient2978);stroke-width:.26458332"/><path id="path2936" d="m 78.581247,126.34374 c -0.293158,0 -0.529166,0.23601 -0.529166,0.52917 v 2.91042 c 0,0.29316 0.236005,0.52916 0.529166,0.52916 h 2.910417 c 0.293158,0 0.529167,-0.236 0.529167,-0.52916 v -2.91042 c 0,-0.29316 -0.236006,-0.52917 -0.529167,-0.52917 z m 0,0.26459 h 2.910417 c 0.146579,0 0.264583,0.118 0.264583,0.26458 v 2.91042 c 0,0.14658 -0.118004,0.26458 -0.264583,0.26458 h -2.910417 c -0.146579,0 -0.264583,-0.118 -0.264583,-0.26458 v -2.91042 c 0,-0.14658 0.118004,-0.26458 0.264583,-0.26458 z" style="color:#000;fill:gray;stroke-width:0"/></g><g id="radio-checked-insensitive-dark" transform="matrix(3.7795276,0,0,3.7795276,-130.00002,-259.51966)" style="opacity:.35"><rect style="opacity:1;fill:none;stroke-width:.14111206;paint-order:stroke fill markers" id="rect2940" width="4.233" height="4.233" x="88.371" y="126.079" ry="0"/><rect id="rect2942" width="1.323" height="1.323" x="89.958" y="127.667" rx=".661" ry=".661" style="color:#000;fill:url(#linearGradient2980);stroke-width:.26458332"/><path id="path2944" d="m 90.619792,126.34374 a 1.984375,1.984375 0 0 0 -1.984375,1.98438 1.984375,1.984375 0 0 0 1.984375,1.98437 1.984375,1.984375 0 0 0 1.984375,-1.98437 1.984375,1.984375 0 0 0 -1.984375,-1.98438 z m 0,0.26459 a 1.7197916,1.7197916 0 0 1 1.719792,1.71979 1.7197916,1.7197916 0 0 1 -1.719792,1.71979 1.7197916,1.7197916 0 0 1 -1.719791,-1.71979 1.7197916,1.7197916 0 0 1 1.719791,-1.71979 z" style="fill:gray;stroke-width:.26458332;paint-order:stroke fill markers"/></g><g id="radio-mixed-insensitive-dark" transform="matrix(3.7795276,0,0,3.7795276,-130.00002,-259.51966)" style="opacity:.35"><rect id="rect2948" width="4.233" height="4.233" x="93.662" y="126.079" ry="0" style="opacity:1;fill:none;stroke-width:.14111206;paint-order:stroke fill markers"/><path id="path2950" d="m 95.911459,126.34374 a 1.984375,1.984375 0 0 0 -1.984375,1.98438 1.984375,1.984375 0 0 0 1.984375,1.98437 1.984375,1.984375 0 0 0 1.984375,-1.98437 1.984375,1.984375 0 0 0 -1.984375,-1.98438 z m 0,0.26459 a 1.7197916,1.7197916 0 0 1 1.719792,1.71979 1.7197916,1.7197916 0 0 1 -1.719792,1.71979 1.7197916,1.7197916 0 0 1 -1.719792,-1.71979 1.7197916,1.7197916 0 0 1 1.719792,-1.71979 z" style="fill:gray;stroke-width:.26458332;paint-order:stroke fill markers"/><rect id="rect2952" width=".265" height="2.381" x="-128.46" y="94.721" ry="0" transform="rotate(-90)" style="fill:url(#linearGradient2982);stroke-width:.26458332"/></g><g id="checkbox-unchecked-insensitive-dark" transform="matrix(3.7795276,0,0,3.7795276,-130.00002,-259.51966)" style="opacity:.35"><rect style="opacity:1;fill:none;stroke-width:.14111206;paint-order:stroke fill markers" id="rect2956" width="4.233" height="4.233" x="67.204" y="126.079" ry="0"/><path id="path2958" d="m 67.997914,126.34374 c -0.293158,0 -0.529166,0.23601 -0.529166,0.52917 v 2.91042 c 0,0.29316 0.236005,0.52916 0.529166,0.52916 h 2.910417 c 0.293158,0 0.529167,-0.236 0.529167,-0.52916 v -2.91042 c 0,-0.29316 -0.236006,-0.52917 -0.529167,-0.52917 z m 0,0.26459 h 2.910417 c 0.146579,0 0.264583,0.118 0.264583,0.26458 v 2.91042 c 0,0.14658 -0.118004,0.26458 -0.264583,0.26458 h -2.910417 c -0.146579,0 -0.264583,-0.118 -0.264583,-0.26458 v -2.91042 c 0,-0.14658 0.118004,-0.26458 0.264583,-0.26458 z" style="color:#000;fill:gray;stroke-width:0"/></g><g id="radio-unchecked-insensitive-dark" transform="matrix(3.7795276,0,0,3.7795276,-130.00002,-259.51966)" style="opacity:.35"><rect id="rect2962" width="4.233" height="4.233" x="83.079" y="126.079" ry="0" style="opacity:1;fill:none;stroke-width:.14111206;paint-order:stroke fill markers"/><path id="path2964" d="m 85.328126,126.34374 a 1.984375,1.984375 0 0 0 -1.984375,1.98438 1.984375,1.984375 0 0 0 1.984375,1.98437 1.984375,1.984375 0 0 0 1.984375,-1.98437 1.984375,1.984375 0 0 0 -1.984375,-1.98438 z m 0,0.26459 a 1.7197916,1.7197916 0 0 1 1.719791,1.71979 1.7197916,1.7197916 0 0 1 -1.719791,1.71979 1.7197916,1.7197916 0 0 1 -1.719792,-1.71979 1.7197916,1.7197916 0 0 1 1.719792,-1.71979 z" style="fill:gray;stroke-width:.26458332;paint-order:stroke fill markers"/></g></g></svg>