<svg xmlns="http://www.w3.org/2000/svg" xmlns:svg="http://www.w3.org/2000/svg" id="svg903" width="150" height="100" version="1.1" viewBox="0 0 39.687 26.458"><metadata id="metadata900"/><g id="layer1" transform="translate(0,-270.54165)"><g id="thumbnail-light" transform="translate(-29.897917,200.19604)"><rect id="rect1448" width="26.404" height="8.412" x="36.244" y="74.116" rx=".087" ry=".077" style="opacity:1;fill:#fff;fill-opacity:1;stroke:none;stroke-width:.26458332;stroke-linecap:round;stroke-linejoin:miter;stroke-miterlimit:4;stroke-dasharray:none;stroke-opacity:1;paint-order:stroke fill markers"/><g id="minimize" transform="matrix(0.26458333,0,0,0.26458333,59.002083,258.80417)" style="display:inline"><rect id="rect674" width="23" height="23" x="-70" y="-693.638" ry="11.5" style="opacity:0;fill:#1f1f1f;fill-opacity:.09803922;stroke:none;stroke-width:.92000002;stroke-linecap:round;stroke-linejoin:miter;stroke-miterlimit:4;stroke-dasharray:none;stroke-opacity:1;paint-order:stroke fill markers"/><rect id="rect676" width="9" height="1" x="-63" y="-682.638" ry="0" style="opacity:1;fill:#5c616c;fill-opacity:1;stroke:none;stroke-width:.47140455;stroke-linecap:round;stroke-linejoin:miter;stroke-miterlimit:4;stroke-dasharray:none;stroke-opacity:.49411765;paint-order:stroke fill markers"/></g><g id="maximize" transform="matrix(0.26458333,0,0,0.26458333,56.885417,259.06875)" style="display:inline"><rect style="opacity:0;fill:#1f1f1f;fill-opacity:.09803922;stroke:none;stroke-width:.92000002;stroke-linecap:round;stroke-linejoin:miter;stroke-miterlimit:4;stroke-dasharray:none;stroke-opacity:1;paint-order:stroke fill markers" id="rect680" width="23" height="23" x="-33" y="-694.638" ry="11.5"/><path id="path682" d="m -26,-687.63782 v 9 h 9 v -9 z m 1,1 h 7 v 7 h -7 z" style="opacity:1;fill:#5c616c;fill-opacity:1;stroke:none;stroke-width:.45056358;stroke-linecap:round;stroke-linejoin:miter;stroke-miterlimit:4;stroke-dasharray:none;stroke-opacity:.49411765;paint-order:stroke fill markers"/></g><g id="close" transform="matrix(0.26458333,0,0,0.26458333,53.445833,259.06875)" style="display:inline"><rect id="rect692" width="23" height="23" x="9" y="-694.638" ry="11.5" style="opacity:0;fill:#f55;fill-opacity:1;stroke:none;stroke-width:.92000002;stroke-linecap:round;stroke-linejoin:miter;stroke-miterlimit:4;stroke-dasharray:none;stroke-opacity:1;paint-order:stroke fill markers"/><path id="path694" d="m 16.353515,-687.99134 -0.70703,0.70704 4.146483,4.14648 -4.146483,4.14648 0.70703,0.70704 4.146485,-4.14649 4.146484,4.14649 0.707031,-0.70704 -4.146484,-4.14648 4.146484,-4.14648 -0.707031,-0.70704 -4.146484,4.14649 z" style="opacity:1;fill:#5c616c;fill-opacity:1;stroke:none;stroke-width:.56059766;stroke-linecap:round;stroke-linejoin:miter;stroke-miterlimit:4;stroke-dasharray:none;stroke-opacity:.49411765;paint-order:stroke fill markers"/></g></g><g id="thumbnail" transform="translate(-29.897917,210.68584)"><rect style="opacity:1;fill:#32343d;fill-opacity:1;stroke:none;stroke-width:.26458332;stroke-linecap:round;stroke-linejoin:miter;stroke-miterlimit:4;stroke-dasharray:none;stroke-opacity:1;paint-order:stroke fill markers" id="rect1503" width="26.404" height="8.412" x="36.244" y="74.116" rx=".087" ry=".077"/><g style="display:inline" id="g1509" transform="matrix(0.26458333,0,0,0.26458333,59.002083,258.80417)"><rect style="opacity:0;fill:#1f1f1f;fill-opacity:.09803922;stroke:none;stroke-width:.92000002;stroke-linecap:round;stroke-linejoin:miter;stroke-miterlimit:4;stroke-dasharray:none;stroke-opacity:1;paint-order:stroke fill markers" id="rect1505" width="23" height="23" x="-70" y="-693.638" ry="11.5"/><rect style="opacity:1;fill:#d3dae3;fill-opacity:1;stroke:none;stroke-width:.47140455;stroke-linecap:round;stroke-linejoin:miter;stroke-miterlimit:4;stroke-dasharray:none;stroke-opacity:.49411765;paint-order:stroke fill markers" id="rect1507" width="9" height="1" x="-63" y="-682.638" ry="0"/></g><g style="display:inline" id="g1515" transform="matrix(0.26458333,0,0,0.26458333,56.885417,259.06875)"><rect id="rect1511" width="23" height="23" x="-33" y="-694.638" ry="11.5" style="opacity:0;fill:#1f1f1f;fill-opacity:.09803922;stroke:none;stroke-width:.92000002;stroke-linecap:round;stroke-linejoin:miter;stroke-miterlimit:4;stroke-dasharray:none;stroke-opacity:1;paint-order:stroke fill markers"/><path style="opacity:1;fill:#d3dae3;fill-opacity:1;stroke:none;stroke-width:.45056358;stroke-linecap:round;stroke-linejoin:miter;stroke-miterlimit:4;stroke-dasharray:none;stroke-opacity:.49411765;paint-order:stroke fill markers" id="path1513" d="m -26,-687.63782 v 9 h 9 v -9 z m 1,1 h 7 v 7 h -7 z"/></g><g style="display:inline" id="g1521" transform="matrix(0.26458333,0,0,0.26458333,53.445833,259.06875)"><rect style="opacity:0;fill:#f55;fill-opacity:1;stroke:none;stroke-width:.92000002;stroke-linecap:round;stroke-linejoin:miter;stroke-miterlimit:4;stroke-dasharray:none;stroke-opacity:1;paint-order:stroke fill markers" id="rect1517" width="23" height="23" x="9" y="-694.638" ry="11.5"/><path style="opacity:1;fill:#d3dae3;fill-opacity:1;stroke:none;stroke-width:.56059766;stroke-linecap:round;stroke-linejoin:miter;stroke-miterlimit:4;stroke-dasharray:none;stroke-opacity:.49411765;paint-order:stroke fill markers" id="path1519" d="m 16.353515,-687.99134 -0.70703,0.70704 4.146483,4.14648 -4.146483,4.14648 0.70703,0.70704 4.146485,-4.14649 4.146484,4.14649 0.707031,-0.70704 -4.146484,-4.14648 4.146484,-4.14648 -0.707031,-0.70704 -4.146484,4.14649 z"/></g></g></g></svg>